# xmcd
#
# Track frame offsets: 
#        150
#        39001
#        55529
#        89519
#        104962
#        138670
#        150625
#        166634
#
# Disc length: 2469 seconds
#
# Revision: 4
# Processed by: cddbd v1.5.2PL0 Copyright (c) Steve Scherf et al.
# Submitted via: ExactAudioCopyFreeDBPlugin 1.0
#
DISCID=5e09a308
DTITLE=Harold Melvin and the Blue Notes - 1972 - Harold Melvin and the Blu
DTITLE=e Notes
DYEAR=1972
DGENRE=Soul
TTITLE0=I Miss You
TTITLE1=Ebony Woman
TTITLE2=Yesterday I Had the Blues
TTITLE3=If You Don't Know Me By Now
TTITLE4=Be for Real
TTITLE5=Let Me Into Your World
TTITLE6=Let it Be You
TTITLE7=If You Don't Know Me By Now (live)
EXTD=Sony Music Rhythm and Soul Legacy Series
EXTT0=
EXTT1=
EXTT2=
EXTT3=
EXTT4=
EXTT5=
EXTT6=
EXTT7=
PLAYORDER=
